<?xml version="1.0" encoding="UTF-8"?>
<svg xmlns="http://www.w3.org/2000/svg" xmlns:xlink="http://www.w3.org/1999/xlink" width="64pt" height="64pt" viewBox="0 0 64 64" version="1.1">
<g id="surface17986302">
<path stroke-width='100' style="fill-rule:nonzero;fill:#365a74;fill-opacity:1;" d="M 8 4 C 5.789062 4 4 5.789062 4 8 L 4 44 C 4 46.210938 5.789062 48 8 48 L 28.820312 48 L 32.039062 59.269531 C 32.050781 59.304688 32.070312 59.332031 32.082031 59.363281 C 32.105469 59.414062 32.121094 59.460938 32.152344 59.507812 C 32.195312 59.582031 32.246094 59.640625 32.308594 59.703125 C 32.328125 59.722656 32.335938 59.75 32.359375 59.765625 C 32.367188 59.773438 32.375 59.773438 32.378906 59.78125 C 32.445312 59.832031 32.523438 59.871094 32.601562 59.90625 C 32.625 59.917969 32.648438 59.933594 32.671875 59.941406 C 32.769531 59.976562 32.875 59.996094 32.984375 60 C 32.992188 60 32.996094 60 33 60 L 56 60 C 58.210938 60 60 58.210938 60 56 L 60 20 C 60 17.789062 58.210938 16 56 16 L 35.179688 16 L 32.378906 6.179688 C 32.011719 4.890625 30.820312 4 29.488281 4 Z M 8 6 L 29.488281 6 C 29.941406 6 30.328125 6.300781 30.449219 6.730469 L 33.097656 16 L 33.671875 18 L 41.671875 46 L 8 46 C 6.898438 46 6 45.101562 6 44 L 6 8 C 6 6.898438 6.898438 6 8 6 Z M 9 8 C 8.449219 8 8 8.449219 8 9 L 8 11 C 8 11.550781 8.449219 12 9 12 C 9.550781 12 10 11.550781 10 11 L 10 9 C 10 8.449219 9.550781 8 9 8 Z M 14 8 C 13.449219 8 13 8.449219 13 9 L 13 11 C 13 11.550781 13.449219 12 14 12 C 14.550781 12 15 11.550781 15 11 L 15 9 C 15 8.449219 14.550781 8 14 8 Z M 19 8 C 18.449219 8 18 8.449219 18 9 L 18 11 C 18 11.550781 18.449219 12 19 12 C 19.550781 12 20 11.550781 20 11 L 20 9 C 20 8.449219 19.550781 8 19 8 Z M 24 8 C 23.449219 8 23 8.449219 23 9 L 23 11 C 23 11.550781 23.449219 12 24 12 C 24.550781 12 25 11.550781 25 11 L 25 9 C 25 8.449219 24.550781 8 24 8 Z M 29 8 C 28.449219 8 28 8.449219 28 9 L 28 11 C 28 11.550781 28.449219 12 29 12 C 29.550781 12 30 11.550781 30 11 L 30 9 C 30 8.449219 29.550781 8 29 8 Z M 21.390625 17.96875 C 20.960938 17.96875 20.578125 18.246094 20.441406 18.652344 L 15.042969 34.652344 C 14.863281 35.171875 15.144531 35.742188 15.667969 35.917969 C 16.191406 36.097656 16.757812 35.8125 16.9375 35.289062 L 18.738281 29.9375 C 18.789062 29.949219 18.835938 29.96875 18.890625 29.96875 L 23.890625 29.96875 C 23.941406 29.96875 23.984375 29.949219 24.035156 29.9375 L 25.84375 35.289062 C 25.984375 35.707031 26.371094 35.96875 26.785156 35.96875 C 26.894531 35.96875 27 35.953125 27.109375 35.917969 C 27.628906 35.742188 27.910156 35.171875 27.734375 34.652344 L 22.335938 18.652344 C 22.199219 18.246094 21.816406 17.96875 21.390625 17.96875 Z M 35.761719 18 L 56 18 C 57.101562 18 58 18.898438 58 20 L 58 56 C 58 57.101562 57.101562 58 56 58 L 35.136719 58 L 38 54.5625 L 38 55 C 38 55.550781 38.449219 56 39 56 C 39.550781 56 40 55.550781 40 55 L 40 53 C 40 52.777344 39.914062 52.578125 39.789062 52.414062 L 43.765625 47.640625 C 43.773438 47.632812 43.773438 47.625 43.78125 47.613281 C 43.785156 47.609375 43.792969 47.605469 43.796875 47.597656 C 43.824219 47.566406 43.824219 47.527344 43.84375 47.496094 C 43.894531 47.410156 43.941406 47.328125 43.964844 47.234375 C 43.976562 47.179688 43.972656 47.128906 43.980469 47.074219 C 43.984375 46.980469 43.980469 46.894531 43.964844 46.800781 C 43.957031 46.777344 43.964844 46.753906 43.957031 46.730469 L 42.6875 42.28125 C 43.714844 41.6875 44.664062 40.976562 45.515625 40.1875 C 47.664062 42.386719 50.46875 43.96875 52.984375 43.96875 C 53.539062 43.96875 53.984375 43.523438 53.984375 42.96875 C 53.984375 42.417969 53.539062 41.96875 52.984375 41.96875 C 50.992188 41.96875 48.664062 40.601562 46.875 38.75 C 48.816406 36.425781 49.984375 33.644531 49.984375 30.96875 L 49.984375 29.96875 L 52.984375 29.96875 C 53.539062 29.96875 53.984375 29.523438 53.984375 28.96875 C 53.984375 28.417969 53.539062 27.96875 52.984375 27.96875 L 45.984375 27.96875 L 45.984375 25.96875 C 45.984375 25.417969 45.539062 24.96875 44.984375 24.96875 C 44.433594 24.96875 43.984375 25.417969 43.984375 25.96875 L 43.984375 27.96875 L 40.984375 27.96875 C 40.433594 27.96875 39.984375 28.417969 39.984375 28.96875 C 39.984375 29.523438 40.433594 29.96875 40.984375 29.96875 L 47.984375 29.96875 L 47.984375 30.96875 C 47.984375 33.203125 47.003906 35.363281 45.566406 37.164062 C 44.605469 35.789062 43.984375 34.308594 43.984375 32.96875 C 43.984375 32.417969 43.539062 31.96875 42.984375 31.96875 C 42.433594 31.96875 41.984375 32.417969 41.984375 32.96875 C 41.984375 34.835938 42.855469 36.859375 44.199219 38.660156 C 43.542969 39.28125 42.835938 39.820312 42.117188 40.28125 Z M 21.390625 22.097656 L 23.371094 27.96875 L 19.40625 27.96875 Z M 30.902344 48 L 40.863281 48 L 33.4375 56.910156 Z M 44 52 C 43.449219 52 43 52.449219 43 53 L 43 55 C 43 55.550781 43.449219 56 44 56 C 44.550781 56 45 55.550781 45 55 L 45 53 C 45 52.449219 44.550781 52 44 52 Z M 49 52 C 48.449219 52 48 52.449219 48 53 L 48 55 C 48 55.550781 48.449219 56 49 56 C 49.550781 56 50 55.550781 50 55 L 50 53 C 50 52.449219 49.550781 52 49 52 Z M 54 52 C 53.449219 52 53 52.449219 53 53 L 53 55 C 53 55.550781 53.449219 56 54 56 C 54.550781 56 55 55.550781 55 55 L 55 53 C 55 52.449219 54.550781 52 54 52 Z M 54 52 "/>
</g>
</svg>
